/* XPM */
static char *harbour-2016-16x16[] = {
/* columns rows colors chars-per-pixel */
"16 16 106 2",
"   c black",
".  c #000C18",
"X  c #021129",
"o  c #031431",
"O  c #021834",
"+  c #041E44",
"@  c #081B54",
"#  c #05234F",
"$  c #052553",
"%  c #06285A",
"&  c #06295B",
"*  c #062C63",
"=  c #072D64",
"-  c #072E67",
";  c #072E68",
":  c #082A6E",
">  c #082E71",
",  c #082E72",
"<  c #07316D",
"1  c #07326F",
"2  c #073371",
"3  c #053F71",
"4  c #083373",
"5  c #083576",
"6  c #083777",
"7  c #083478",
"8  c #083578",
"9  c #08357A",
"0  c #083678",
"q  c #083679",
"w  c #08367A",
"e  c #08377A",
"r  c #08377B",
"t  c #08377C",
"y  c #08377D",
"u  c #08387C",
"i  c #08387D",
"p  c #08387E",
"a  c #08397E",
"s  c #08397F",
"d  c #09387E",
"f  c #083A7F",
"g  c #083B7F",
"h  c #064276",
"j  c #093980",
"k  c #083B81",
"l  c #093A81",
"z  c #093A83",
"x  c #093B83",
"c  c #093B84",
"v  c #083D81",
"b  c #083C82",
"n  c #083D83",
"m  c #093C83",
"M  c #093D84",
"N  c #083F84",
"B  c #093F86",
"V  c #093E8A",
"C  c #084086",
"Z  c #084087",
"A  c #084389",
"S  c #08448B",
"D  c #08458A",
"F  c #08468C",
"G  c #08478D",
"H  c #08478E",
"J  c #084990",
"K  c #084B90",
"L  c #084B92",
"P  c #084D94",
"I  c #084E94",
"U  c #084F95",
"Y  c #084E96",
"T  c #084F96",
"R  c #085096",
"E  c #085097",
"W  c #085297",
"Q  c #085198",
"!  c #095199",
"~  c #085299",
"^  c #08539B",
"/  c #08549B",
"(  c #09549C",
")  c #08579F",
"_  c #0858A0",
"`  c #085AA1",
"'  c #085AA3",
"]  c #085BA3",
"[  c #085CA0",
"{  c #085CA2",
"}  c #085CA4",
"|  c #085DA4",
" . c #095CA5",
".. c #095DA6",
"X. c #085EA5",
"o. c #085EA7",
"O. c #085FA7",
"+. c #095EA7",
"@. c #085FA8",
"#. c #095FA8",
"$. c #0861A8",
"%. c #0865AD",
"&. c #0870B4",
"*. c #0976C2",
"=. c #18FFFF",
"-. c None",
/* pixels */
"-.-.-.-.-.-.-.-.-.4 = -.-.-.-.-.",
"-.-.-.-.-.-.-.-.r 8 8 -.-.-.-.-.",
"-.-.-.-.-.-.-.-.r s { . -.-.-.-.",
"-.-.-.-.-.-.-.r r Y X.-.-.-.-.-.",
"-.-.-.-.-.-.8 s s X./ -.-.-.-.-.",
"-.-.-.-.-.-.i i H ] v -.-.-.-.-.",
"-.-.-.-.-.i i s Y ^ i -.-.-.-.-.",
"-.-.-.-.8 s s i ! Y i -.-.-.-.-.",
"-.-.-.-.i i v M ( L y -.-.-.-.-.",
"-.-.-.8 i s _ X.X.H r -.-.-.-.-.",
"-.-.-.8 , $.$.@.@.H r -.-.-.-.-.",
"-.-.-.-.X.@.O.{ _ B r -.-.-.-.-.",
"i i r , W X.K M M s i -.-.-.-.-.",
"r s H H Z C i i r r r 4 7 7 i s ",
"-.-._ K Y T / ! ! T Y Y Y Y T T ",
"-.-.-.8 i i N D K ! { O.X.$.$.%."
};
